STARTFONT 2.3
FONT -FontForge-Henny Penny-Book-R-Normal--18-180-72-72-P-102-ISO10646-1
SIZE 18 72 72  2
FONTBOUNDINGBOX 26 33 -3 -12
COMMENT "Generated by fontforge, http://fontforge.sourceforge.net"
COMMENT "Copyright (c) 2012, Brownfox (gayaneh.b@gmail.com), with Reserved Font Name "Henny Penny""
STARTPROPERTIES 40
FOUNDRY "FontForge"
FAMILY_NAME "Henny Penny"
WEIGHT_NAME "Book"
SLANT "R"
SETWIDTH_NAME "Normal"
ADD_STYLE_NAME ""
PIXEL_SIZE 18
POINT_SIZE 180
RESOLUTION_X 72
RESOLUTION_Y 72
SPACING "P"
AVERAGE_WIDTH 102
CHARSET_REGISTRY "ISO10646"
CHARSET_ENCODING "1"
FONTNAME_REGISTRY ""
CHARSET_COLLECTIONS "ISO10646-1"
BITS_PER_PIXEL 2
FONT_NAME "HennyPenny-Regular"
FACE_NAME "Henny Penny"
COPYRIGHT "Copyright (c) 2012, Brownfox (gayaneh.b@gmail.com), with Reserved Font Name "Henny Penny""
FONT_VERSION "1.001"
FONT_ASCENT 14
FONT_DESCENT 4
UNDERLINE_POSITION -2
UNDERLINE_THICKNESS 1
X_HEIGHT 10
CAP_HEIGHT 13
RAW_ASCENT 799
RAW_DESCENT 200
NORM_SPACE 5
RELATIVE_WEIGHT 40
RELATIVE_SETWIDTH 50
SUPERSCRIPT_X 0
SUPERSCRIPT_Y 6
SUPERSCRIPT_SIZE 10
SUBSCRIPT_X 0
SUBSCRIPT_Y 1
SUBSCRIPT_SIZE 10
AVG_LOWERCASE_WIDTH 91
AVG_UPPERCASE_WIDTH 127
ENDPROPERTIES
CHARS 233
STARTCHAR space
ENCODING 32
SWIDTH 270 0
DWIDTH 5 0
BBX 1 1 0 0
BITMAP
00
ENDCHAR
STARTCHAR exclam
ENCODING 33
SWIDTH 249 0
DWIDTH 4 0
BBX 3 18 1 -1
BITMAP
B0
F4
F8
B4
B4
B4
74
74
70
30
30
20
20
00
00
00
B0
B0
ENDCHAR
STARTCHAR quotedbl
ENCODING 34
SWIDTH 292 0
DWIDTH 5 0
BBX 4 6 1 9
BITMAP
C9
CD
CD
88
88
44
ENDCHAR
STARTCHAR numbersign
ENCODING 35
SWIDTH 1030 0
DWIDTH 19 0
BBX 17 21 1 -6
BITMAP
0000100000
0000500000
0000810000
0000820000
0001050000
4002080000
556E795540
0008200000
0014500000
0020800000
0066969000
6AEB400000
41C5000000
0248000000
0318000000
0A24000000
0C20000000
0490000000
00C0000000
0180000000
0100000000
ENDCHAR
STARTCHAR dollar
ENCODING 36
SWIDTH 799 0
DWIDTH 14 0
BBX 11 20 2 -4
BITMAP
000100
000514
01BEB0
03D9E0
0B8890
0B8850
07E400
03F400
01FD00
00BF00
003F80
005BC0
1043D0
2082D0
3082D0
7442C0
AE4740
07F900
020000
010000
ENDCHAR
STARTCHAR percent
ENCODING 37
SWIDTH 789 0
DWIDTH 14 0
BBX 14 17 0 0
BITMAP
0BE00140
2C780200
382C0800
381C1400
2D286000
0BE08000
00024000
00060000
00080000
00246E40
0051D2D0
018380E0
020380E0
090380E0
1802D2C0
2000BE40
50000000
ENDCHAR
STARTCHAR ampersand
ENCODING 38
SWIDTH 773 0
DWIDTH 14 0
BBX 14 18 0 -2
BITMAP
00BD0000
03470000
06070000
060A0000
061C0000
07B40000
03D00600
0BC06F00
1FD14B00
3DF00600
7C780600
7C2D0900
7C0F4800
3D07E400
1F42F410
06FEBD80
00002F80
00000A00
ENDCHAR
STARTCHAR quotesingle
ENCODING 39
SWIDTH 174 0
DWIDTH 3 0
BBX 2 6 1 8
BITMAP
C0
D0
D0
80
80
40
ENDCHAR
STARTCHAR parenleft
ENCODING 40
SWIDTH 431 0
DWIDTH 8 0
BBX 8 26 0 -8
BITMAP
0040
0200
0500
0C00
1800
2800
3400
7400
B400
B000
B000
B000
B400
B400
B400
7800
3C00
2D00
1E00
0F00
0780
02C0
00A0
0034
0009
0001
ENDCHAR
STARTCHAR parenright
ENCODING 41
SWIDTH 443 0
DWIDTH 8 0
BBX 8 18 0 -4
BITMAP
1000
1E00
03D0
00F0
0078
003C
002D
001E
001E
001E
001E
001D
002C
0038
00B0
02D0
0A00
6400
ENDCHAR
STARTCHAR asterisk
ENCODING 42
SWIDTH 490 0
DWIDTH 9 0
BBX 7 8 1 9
BITMAP
0100
0700
0318
5274
FE90
0690
1C74
1028
ENDCHAR
STARTCHAR plus
ENCODING 43
SWIDTH 440 0
DWIDTH 8 0
BBX 6 10 1 1
BITMAP
0100
0200
0200
0200
0210
FFA0
0200
0200
0200
0200
ENDCHAR
STARTCHAR comma
ENCODING 44
SWIDTH 251 0
DWIDTH 5 0
BBX 3 6 1 -3
BITMAP
B4
F8
B8
24
20
40
ENDCHAR
STARTCHAR hyphen
ENCODING 45
SWIDTH 436 0
DWIDTH 8 0
BBX 6 2 1 3
BITMAP
4000
BFE0
ENDCHAR
STARTCHAR period
ENCODING 46
SWIDTH 238 0
DWIDTH 4 0
BBX 3 3 1 -1
BITMAP
B0
F4
B0
ENDCHAR
STARTCHAR slash
ENCODING 47
SWIDTH 690 0
DWIDTH 12 0
BBX 12 17 0 0
BITMAP
000001
000002
000008
000014
000060
000080
000240
000600
000800
002400
009000
018000
020000
090000
180000
200000
800000
ENDCHAR
STARTCHAR zero
ENCODING 48
SWIDTH 723 0
DWIDTH 13 0
BBX 13 13 0 1
BITMAP
01BF9000
0B41B800
2D002D00
38000F00
B4000B40
B4000780
B4000780
B4000780
78000780
3C000B40
1E001E00
0B907800
01BF9000
ENDCHAR
STARTCHAR one
ENCODING 49
SWIDTH 505 0
DWIDTH 9 0
BBX 9 17 0 -1
BITMAP
008000
01C000
02C000
0BD000
2BD000
91E000
01E000
00F000
00F000
00B400
00B400
00B800
00BC00
00BD00
01FF80
0B9000
140000
ENDCHAR
STARTCHAR two
ENCODING 50
SWIDTH 534 0
DWIDTH 10 0
BBX 10 16 0 -1
BITMAP
0BF400
247E00
501F00
800F40
401F00
401E00
002D00
007800
00B000
02C000
0A0000
780000
290010
02D480
007F40
000A00
ENDCHAR
STARTCHAR three
ENCODING 51
SWIDTH 511 0
DWIDTH 9 0
BBX 9 15 0 -1
BITMAP
140000
3FFD00
340C00
202400
105000
018000
00A400
001E00
000780
4003C0
8003C0
9007C0
741F80
2FFF40
06F900
ENDCHAR
STARTCHAR four
ENCODING 52
SWIDTH 712 0
DWIDTH 13 0
BBX 13 17 0 -2
BITMAP
00020000
000A0000
002D0000
005E0000
014E0000
050B0000
140B4000
70074000
7D078000
06E7C000
002FE600
0002FD00
0002E400
0001E000
0001F000
000AF800
00000640
ENDCHAR
STARTCHAR five
ENCODING 53
SWIDTH 757 0
DWIDTH 14 0
BBX 14 17 0 -2
BITMAP
00038050
0007F9C0
0004BF80
00101F40
00100100
00940000
00BF8000
000BE000
0001F800
5000BC00
80007C00
80007C00
80007800
8000B400
5001E000
2907C000
06F90000
ENDCHAR
STARTCHAR six
ENCODING 54
SWIDTH 598 0
DWIDTH 11 0
BBX 11 14 0 0
BITMAP
01BE40
0B80A0
1E0014
3C0000
7DBE40
BE42D0
BD00B0
B80074
B80038
780038
3C0074
2D00B0
0B42D0
01BE40
ENDCHAR
STARTCHAR seven
ENCODING 55
SWIDTH 507 0
DWIDTH 9 0
BBX 9 15 0 -2
BITMAP
400180
FFFF40
A06F00
800500
400800
401400
003000
00A000
00D000
01C000
038000
078000
0B8000
0F4000
040000
ENDCHAR
STARTCHAR eight
ENCODING 56
SWIDTH 476 0
DWIDTH 9 0
BBX 9 15 0 -1
BITMAP
07E400
2E0800
3D0500
7D0500
3E0800
2FE000
0BF400
0AFD00
342F00
A00B40
900740
D00340
A00700
781D00
1BE400
ENDCHAR
STARTCHAR nine
ENCODING 57
SWIDTH 601 0
DWIDTH 11 0
BBX 11 14 0 0
BITMAP
06F900
2D0B80
7402E0
B401F0
B000F4
B400F8
7801F8
2E46F8
06FAF4
0001F0
0002E0
0003D0
241F40
1BF800
ENDCHAR
STARTCHAR colon
ENCODING 58
SWIDTH 246 0
DWIDTH 4 0
BBX 3 10 1 -1
BITMAP
B0
F4
B0
00
00
00
00
74
B4
B4
ENDCHAR
STARTCHAR semicolon
ENCODING 59
SWIDTH 266 0
DWIDTH 5 0
BBX 3 11 1 -3
BITMAP
78
BC
74
00
00
00
B4
F8
74
20
80
ENDCHAR
STARTCHAR less
ENCODING 60
SWIDTH 522 0
DWIDTH 9 0
BBX 8 9 1 1
BITMAP
0004
0024
0180
1900
A000
6800
0680
0074
0005
ENDCHAR
STARTCHAR equal
ENCODING 61
SWIDTH 655 0
DWIDTH 12 0
BBX 10 4 1 3
BITMAP
056BE0
A95400
000000
FFEA40
ENDCHAR
STARTCHAR greater
ENCODING 62
SWIDTH 533 0
DWIDTH 10 0
BBX 8 9 1 1
BITMAP
9000
1800
0240
0064
000D
0028
0090
0600
1400
ENDCHAR
STARTCHAR question
ENCODING 63
SWIDTH 564 0
DWIDTH 10 0
BBX 10 17 0 -2
BITMAP
06F900
1D1B80
3403D0
B802E0
BD02E0
7E03D0
2E0BC0
001F00
007800
01D000
060000
080000
080000
0B4000
000000
074000
074000
ENDCHAR
STARTCHAR at
ENCODING 64
SWIDTH 898 0
DWIDTH 16 0
BBX 15 18 1 -5
BITMAP
006FF800
02D01B40
0A0000C0
18000060
20003820
507E7814
82D1F814
8380B814
87407414
8B407414
8B407410
8780B820
83D1AC50
50BE0B80
2002D000
1802E000
0A41D000
01BE4000
ENDCHAR
STARTCHAR A
ENCODING 65
SWIDTH 784 0
DWIDTH 14 0
BBX 15 17 0 -2
BITMAP
001A0000
03FF0000
001F4000
00278000
0023C000
0052D000
0081E000
0090F400
01AEF800
0241FC00
02007D00
06003E00
09002F00
FE001F40
06400FD0
00001FF4
0000A400
ENDCHAR
STARTCHAR B
ENCODING 66
SWIDTH 685 0
DWIDTH 12 0
BBX 12 18 0 -3
BITMAP
55AF90
1F42F4
0740F8
0740B4
0380B0
0380D0
038600
03EBE0
03807C
03C02E
03C01F
03C00F
03C01F
03D02E
07E078
0BFF90
640000
400000
ENDCHAR
STARTCHAR C
ENCODING 67
SWIDTH 742 0
DWIDTH 13 0
BBX 13 18 0 -2
BITMAP
00000100
00000200
00000200
00AFEF00
07D01F00
1F000340
3D000140
7C000000
BC000000
F8000000
F8000000
FC000040
BC000040
7D000080
3F000080
1F800240
07E41900
006FE400
ENDCHAR
STARTCHAR D
ENCODING 68
SWIDTH 726 0
DWIDTH 13 0
BBX 13 16 0 -4
BITMAP
6AAFE400
1F81BD00
0B402F00
0B400F40
07400B80
07400B80
07400B80
07400F80
07800F40
07802E00
07D0B800
0BFE4000
0F900000
29000000
50000000
40000000
ENDCHAR
STARTCHAR E
ENCODING 69
SWIDTH 557 0
DWIDTH 10 0
BBX 10 17 0 -2
BITMAP
555AC0
3F4080
1F0040
1F0000
0F0000
0F4000
0B4400
0BF800
0B5800
074400
074000
078000
038010
038020
07C070
BFFBE0
001550
ENDCHAR
STARTCHAR F
ENCODING 70
SWIDTH 533 0
DWIDTH 10 0
BBX 10 16 0 -1
BITMAP
0005B0
5680A0
1F8060
0B8050
0B8040
078400
078800
03FC00
03C800
03C400
03C400
02C000
02C000
02C000
07D000
7EB800
ENDCHAR
STARTCHAR G
ENCODING 71
SWIDTH 750 0
DWIDTH 14 0
BBX 14 14 0 0
BITMAP
00000010
00000050
01BF8180
0BD06F40
2F000E00
3D000900
BC000800
B8001680
F807FF00
B8001E00
BC001E00
3E001F00
1F806A00
02FE4000
ENDCHAR
STARTCHAR H
ENCODING 72
SWIDTH 743 0
DWIDTH 13 0
BBX 14 19 0 -3
BITMAP
64000000
0FFD0000
0B8006D0
0B42FF00
0B402E00
0B401E00
0B401E00
0B401E00
0B806E00
0BFFBE00
0B801E00
0B801E00
0B800E00
0B800E00
0B800E00
0B801E00
0B81FF80
7FD04000
50100000
ENDCHAR
STARTCHAR I
ENCODING 73
SWIDTH 438 0
DWIDTH 8 0
BBX 10 18 -1 -3
BITMAP
6AABE0
07F900
02F400
02F000
01E000
01E000
01E000
01D000
01D000
01D000
01C000
01C000
01C000
01C000
02C000
02D000
0BFD00
690000
ENDCHAR
STARTCHAR J
ENCODING 74
SWIDTH 628 0
DWIDTH 11 0
BBX 12 22 0 -5
BITMAP
000001
00016E
00FFE0
000BD0
0007D0
0003C0
0003C0
0003C0
0003C0
0002C0
0002C0
0002C0
000380
000380
000380
000740
000700
2E0A00
BF0D00
FF2800
91B000
2F8000
ENDCHAR
STARTCHAR K
ENCODING 75
SWIDTH 866 0
DWIDTH 16 0
BBX 16 17 0 -1
BITMAP
01619000
BF80BFC0
1F406400
0F408000
0F420000
0B490000
0B6D0000
0BAE0000
0B9F4000
0B4BC008
0747E002
0742F802
0740BE47
07802FFE
0B8006F8
1FE00000
00540000
ENDCHAR
STARTCHAR L
ENCODING 76
SWIDTH 660 0
DWIDTH 12 0
BBX 12 14 0 0
BITMAP
540000
6FFF00
03F400
03E000
03E000
02E000
02D000
02D010
02D014
02D008
02D00C
03D02D
2FFFFD
150000
ENDCHAR
STARTCHAR M
ENCODING 77
SWIDTH 1089 0
DWIDTH 20 0
BBX 20 14 0 -1
BITMAP
00000003F4
0000000740
02E9000F00
00AF001F00
002B801F00
0023E04B40
0021F44740
0020BE0380
00207E03C0
00202C02D0
00100802E0
B4400001F4
FE400007FF
7D00001900
ENDCHAR
STARTCHAR N
ENCODING 78
SWIDTH 799 0
DWIDTH 14 0
BBX 15 18 0 -4
BITMAP
00000010
FFC03FE4
0BE00740
0AF80200
05BE0200
052F8200
050FD200
0507FA00
0501FF00
0500BE00
05002E00
05000E00
05000600
05000000
09000000
1E000000
BF900000
00500000
ENDCHAR
STARTCHAR O
ENCODING 79
SWIDTH 747 0
DWIDTH 13 0
BBX 14 13 0 0
BITMAP
01BF9000
0B41BC00
2D002F00
78000F80
B4000BC0
B40007D0
F40007D0
B40007D0
B80007C0
7C000B80
2E000F00
0B907D00
01BF9000
ENDCHAR
STARTCHAR P
ENCODING 80
SWIDTH 623 0
DWIDTH 11 0
BBX 12 16 0 -3
BITMAP
FFFFE0
07F0B8
02D03C
02D03D
02D03C
02D078
02D1F4
02FF90
02D000
02D000
02D000
03D000
03D000
07E000
6FF000
001540
ENDCHAR
STARTCHAR Q
ENCODING 81
SWIDTH 804 0
DWIDTH 14 0
BBX 21 22 0 -8
BITMAP
006FE4000000
0780BE000000
1D001F800000
380007D00000
740002E00000
B40001F00000
B40000F40000
F40000F40000
B40000F00000
B801F8F00000
7C021EE00000
3E0507D00000
1F4507800000
07E91FD00000
00AFE6E00000
000001F00000
000001F40000
000000F80040
000000BD0040
0000007F4600
0000002FFE00
00000007F400
ENDCHAR
STARTCHAR R
ENCODING 82
SWIDTH 869 0
DWIDTH 16 0
BBX 16 14 0 -1
BITMAP
FFFFD000
1FE1F400
0BC07800
07807800
0380B800
0386F400
03FFE000
02878000
02C3C000
02C2E001
02C1F401
03D0BE42
7FF42FFE
001406F8
ENDCHAR
STARTCHAR S
ENCODING 83
SWIDTH 517 0
DWIDTH 9 0
BBX 10 17 0 -2
BITMAP
000040
01B880
078280
0B0180
0B4040
078000
03D000
01F400
00BD00
002F00
000F80
8007C0
8003D0
A003D0
7403D0
690B80
41F900
ENDCHAR
STARTCHAR T
ENCODING 84
SWIDTH 659 0
DWIDTH 12 0
BBX 13 19 0 -3
BITMAP
B9400000
BFFFFF40
740B0740
600B0240
200B0200
200B0100
100B0000
000F0000
000F0000
000F0000
000F0000
000F0000
000F0000
001F0000
001F0000
002F8000
007FFD00
01E40000
01000000
ENDCHAR
STARTCHAR U
ENCODING 85
SWIDTH 690 0
DWIDTH 12 0
BBX 14 14 0 1
BITMAP
00050000
16B80000
FFE00000
1FC3EB90
0FC06D00
0B800C00
0B800800
0B800800
0B800800
07C00800
07C00800
03E01400
01F46000
006F8000
ENDCHAR
STARTCHAR V
ENCODING 86
SWIDTH 798 0
DWIDTH 14 0
BBX 16 14 0 0
BITMAP
00190000
BFF00001
07F0000A
01F401B8
00B82FE0
003D01C0
002E0140
001F4200
000B8500
0007E800
0003F400
0001F000
0000E000
00009000
ENDCHAR
STARTCHAR W
ENCODING 87
SWIDTH 1120 0
DWIDTH 20 0
BBX 23 16 0 -2
BITMAP
000000009400
000000006FF4
000000000E00
004000000C00
068000001800
6F4000002000
1F8024002000
07C07C005000
03D0AE008000
02E14F414000
01F60BC20000
00FD07E50000
00B802FC0000
007401F40000
001000B00000
000000500000
ENDCHAR
STARTCHAR X
ENCODING 88
SWIDTH 868 0
DWIDTH 16 0
BBX 16 15 0 -1
BITMAP
00160000
FFFE0100
06FD01E4
007E0180
001F4200
000B8500
0003E800
0002F400
0002B800
00082D00
00240F00
01A00780
7FE003D0
01B47FF8
00000005
ENDCHAR
STARTCHAR Y
ENCODING 89
SWIDTH 796 0
DWIDTH 14 0
BBX 16 18 0 -2
BITMAP
01640000
BFD00240
1BC001FF
02E00080
00F80200
007E0800
001FB400
000BE000
0003C000
0002C000
0002C000
0002C000
0003C000
0003D000
0003D000
000BD000
00BFF400
00005800
ENDCHAR
STARTCHAR Z
ENCODING 90
SWIDTH 627 0
DWIDTH 11 0
BBX 11 16 1 -3
BITMAP
900500
FFFD00
D0BC00
80F800
41F400
02E000
02D000
03C000
078010
0B4020
0F0020
1E0030
2D00B4
3D6BF8
7E9000
100000
ENDCHAR
STARTCHAR bracketleft
ENCODING 91
SWIDTH 344 0
DWIDTH 6 0
BBX 6 19 0 -4
BITMAP
1E90
2D00
2C00
2C00
3800
3800
3800
7800
7400
7400
B400
B400
B400
B400
B400
B400
B400
B800
6FE0
ENDCHAR
STARTCHAR backslash
ENCODING 92
SWIDTH 347 0
DWIDTH 6 0
BBX 6 19 0 -2
BITMAP
8000
9000
5000
2000
2000
1400
0800
0800
0800
0500
0200
0200
0140
0180
0080
0080
0050
0020
0020
ENDCHAR
STARTCHAR bracketright
ENCODING 93
SWIDTH 334 0
DWIDTH 6 0
BBX 6 17 0 -4
BITMAP
0140
2F80
07C0
03C0
03C0
03C0
03D0
03D0
03D0
02D0
02E0
02E0
02E0
02E0
03E0
0A40
6400
ENDCHAR
STARTCHAR asciicircum
ENCODING 94
SWIDTH 658 0
DWIDTH 12 0
BBX 10 4 1 10
BITMAP
009000
07F400
2EBE40
E406E0
ENDCHAR
STARTCHAR underscore
ENCODING 95
SWIDTH 678 0
DWIDTH 12 0
BBX 11 2 1 -6
BITMAP
16ABF4
554000
ENDCHAR
STARTCHAR grave
ENCODING 96
SWIDTH 278 0
DWIDTH 5 0
BBX 3 4 1 14
BITMAP
D0
B0
28
08
ENDCHAR
STARTCHAR a
ENCODING 97
SWIDTH 527 0
DWIDTH 10 0
BBX 10 12 0 -1
BITMAP
0BE000
247400
243C00
2D2D00
1E2D00
001E00
1BFE00
741F00
B41F00
BFEF50
2F8B90
0002E0
ENDCHAR
STARTCHAR b
ENCODING 98
SWIDTH 582 0
DWIDTH 10 0
BBX 12 20 -2 0
BITMAP
004000
018000
078000
7FC000
03C000
02C000
02C000
02C000
02C000
02C000
01D000
01D6F4
01E43E
01D01F
01E00F
01E00F
01F01F
01F42D
02FFE4
0E5000
ENDCHAR
STARTCHAR c
ENCODING 99
SWIDTH 437 0
DWIDTH 8 0
BBX 8 10 0 1
BITMAP
06F4
18BC
3078
7000
A000
B004
B002
7406
2D08
0BE4
ENDCHAR
STARTCHAR d
ENCODING 100
SWIDTH 523 0
DWIDTH 9 0
BBX 10 17 0 1
BITMAP
001600
00AF00
000F00
000F00
000B00
000B00
000B00
000B00
000B00
000B00
1BEF00
3D0B00
B80B00
B40B00
B80B00
7D1F40
1BFEE0
ENDCHAR
STARTCHAR e
ENCODING 101
SWIDTH 434 0
DWIDTH 8 0
BBX 8 10 0 1
BITMAP
06F4
1D1D
380E
741D
B47C
BFE0
B805
7801
2E09
0BF4
ENDCHAR
STARTCHAR f
ENCODING 102
SWIDTH 299 0
DWIDTH 5 0
BBX 10 23 -1 -3
BITMAP
001F40
0061D0
00C0D0
0186D0
024FD0
024B40
034000
078400
BFF800
078000
078000
078000
078000
078000
038000
038000
038000
038000
038000
03C000
07D000
0BFC00
290000
ENDCHAR
STARTCHAR g
ENCODING 103
SWIDTH 567 0
DWIDTH 10 0
BBX 11 17 0 -7
BITMAP
0002F4
0004B8
0BF874
2E1E00
7C0B40
7C0B00
3D1E00
0BF800
1D0000
0BF900
1D1B80
7802D0
F000E0
F000E0
F401C0
BD0740
1BE400
ENDCHAR
STARTCHAR h
ENCODING 104
SWIDTH 566 0
DWIDTH 10 0
BBX 11 19 -1 0
BITMAP
009000
07C000
7FC000
028000
028000
028000
028000
028000
034000
034000
034000
035F80
0792D0
0781E0
0741E0
0741E0
0B01E0
0F41E0
BFD7FC
ENDCHAR
STARTCHAR i
ENCODING 105
SWIDTH 301 0
DWIDTH 5 0
BBX 5 13 0 2
BITMAP
0E00
0E00
0000
0600
BF00
1F00
1E00
1E00
1E00
1D00
1D00
1E00
BFC0
ENDCHAR
STARTCHAR j
ENCODING 106
SWIDTH 367 0
DWIDTH 7 0
BBX 9 20 -2 -9
BITMAP
003800
007800
000400
06FE00
007E00
002F00
001F00
000F00
000B00
000B40
000740
000740
000700
000700
2E0700
BE0A00
E40900
C01C00
A07400
2F9000
ENDCHAR
STARTCHAR k
ENCODING 107
SWIDTH 567 0
DWIDTH 10 0
BBX 11 20 -1 -2
BITMAP
024000
1B4000
FF4000
074000
074000
034000
034000
034000
035900
0347E0
038600
039800
03B400
03B814
03AC08
03CE08
03CB48
03C2F4
07D000
6EBE00
ENDCHAR
STARTCHAR l
ENCODING 108
SWIDTH 354 0
DWIDTH 6 0
BBX 8 16 -1 0
BITMAP
0080
02C0
2FC0
ABC0
03C0
03C0
03C0
02C0
02C0
02D0
01D0
01D0
01D0
01D0
01E0
0FFD
ENDCHAR
STARTCHAR m
ENCODING 109
SWIDTH 708 0
DWIDTH 13 0
BBX 13 8 0 2
BITMAP
05000000
6EB8B800
0F5E2D00
0E0E1E00
0A1E1E00
0B3F2D00
7F816D00
00000240
ENDCHAR
STARTCHAR n
ENCODING 110
SWIDTH 584 0
DWIDTH 11 0
BBX 11 12 0 0
BITMAP
090000
2D1F80
5E52D0
0E41E0
0B40E0
0B40E0
0700E0
0701D0
0342D0
038FD0
1FD1A0
000004
ENDCHAR
STARTCHAR o
ENCODING 111
SWIDTH 503 0
DWIDTH 9 0
BBX 9 8 0 1
BITMAP
07F800
2D1E00
780B40
B80780
B80380
7C0740
2E0A00
07F800
ENDCHAR
STARTCHAR p
ENCODING 112
SWIDTH 509 0
DWIDTH 9 0
BBX 9 18 0 -8
BITMAP
020000
1E7E00
6F4B40
0F0380
0A03C0
0A0380
0A0740
0B4B00
0FB900
0F0000
0F0000
0F0000
0F0000
0F0000
0F0000
1F4000
7FD000
005000
ENDCHAR
STARTCHAR q
ENCODING 113
SWIDTH 505 0
DWIDTH 9 0
BBX 9 16 0 -7
BITMAP
1BEE00
782D00
B41D00
B41D00
7D2D00
1FAD00
001D00
001D00
001D00
001D00
001D00
001D00
001D00
002D00
02FE00
0016C0
ENDCHAR
STARTCHAR r
ENCODING 114
SWIDTH 414 0
DWIDTH 7 0
BBX 9 12 0 0
BITMAP
002E00
099240
BD8B40
1F4B00
0F0000
0F0000
0F0000
0B4000
0B4000
0B8000
0BF400
750000
ENDCHAR
STARTCHAR s
ENCODING 115
SWIDTH 482 0
DWIDTH 9 0
BBX 9 14 0 -2
BITMAP
000100
01FA00
074A00
0B0500
074100
02D000
00F400
003D00
041F00
080B40
280780
A80780
091F00
01F900
ENDCHAR
STARTCHAR t
ENCODING 116
SWIDTH 434 0
DWIDTH 8 0
BBX 8 14 0 0
BITMAP
0090
00D0
01C0
0780
7FF8
0F80
0F00
1E00
2D00
2D00
2D0D
1E0A
0F49
06F4
ENDCHAR
STARTCHAR u
ENCODING 117
SWIDTH 744 0
DWIDTH 13 0
BBX 14 10 0 0
BITMAP
00006400
0207F400
1F007800
AF403800
0B403800
07807800
07C06C00
03E19FD0
02FF4500
00BD0000
ENDCHAR
STARTCHAR v
ENCODING 118
SWIDTH 600 0
DWIDTH 11 0
BBX 11 11 0 0
BITMAP
018000
6F4000
4F83F4
07C080
03D080
01E040
00F100
00B500
003D00
002C00
000800
ENDCHAR
STARTCHAR w
ENCODING 119
SWIDTH 745 0
DWIDTH 13 0
BBX 14 9 0 0
BITMAP
004006D0
1B020340
BF078500
1F4BD800
0B86F800
07E0F400
03E06000
02D00000
00800000
ENDCHAR
STARTCHAR x
ENCODING 120
SWIDTH 548 0
DWIDTH 10 0
BBX 10 11 0 0
BITMAP
01B000
FFC400
1F8BE0
07C200
02E800
00F400
00B400
00FC00
062E00
3A1FD0
00A400
ENDCHAR
STARTCHAR y
ENCODING 121
SWIDTH 659 0
DWIDTH 12 0
BBX 12 17 0 -8
BITMAP
019001
1B47FD
BE00F8
1E0078
1E0078
0F00B8
0B40B4
03D174
01B970
000070
0000A0
000090
06D0C0
06E180
05D340
091D00
06E400
ENDCHAR
STARTCHAR z
ENCODING 122
SWIDTH 460 0
DWIDTH 8 0
BBX 9 11 0 0
BITMAP
790000
7FFC00
903800
40B000
00E000
02D000
078000
0F4040
2E0640
7FFF40
500000
ENDCHAR
STARTCHAR braceleft
ENCODING 123
SWIDTH 460 0
DWIDTH 8 0
BBX 8 23 0 -6
BITMAP
007E
01D0
02C0
02C0
02C0
02D0
02D0
01E0
02E0
07D0
6F40
6800
0600
0280
02C0
02D0
02D0
02D0
02D0
02D0
02D1
01E2
00BD
ENDCHAR
STARTCHAR bar
ENCODING 124
SWIDTH 368 0
DWIDTH 7 0
BBX 2 19 2 -3
BITMAP
50
50
50
50
50
10
10
20
20
20
20
20
20
20
20
20
20
20
10
ENDCHAR
STARTCHAR braceright
ENCODING 125
SWIDTH 476 0
DWIDTH 9 0
BBX 8 19 0 -5
BITMAP
1F80
53E0
82F0
01F0
01F0
00F0
00B0
001A
000D
001C
001D
001E
000F
000B
000B
0007
000A
001D
01E0
ENDCHAR
STARTCHAR asciitilde
ENCODING 126
SWIDTH 733 0
DWIDTH 13 0
BBX 12 4 1 3
BITMAP
000005
1FA41C
51BFF4
401BD0
ENDCHAR
STARTCHAR nonbreakingspace
ENCODING 160
SWIDTH 270 0
DWIDTH 5 0
BBX 1 1 0 0
BITMAP
00
ENDCHAR
STARTCHAR exclamdown
ENCODING 161
SWIDTH 247 0
DWIDTH 4 0
BBX 3 19 1 -2
BITMAP
B0
F0
00
00
10
60
60
70
70
70
74
B4
B4
B4
B4
F8
F8
F4
B0
ENDCHAR
STARTCHAR cent
ENCODING 162
SWIDTH 799 0
DWIDTH 14 0
BBX 9 15 3 -4
BITMAP
040000
050000
07F800
1E0A00
790B00
B10F40
F04E00
F04000
F08040
B85100
3E1500
0BF400
002000
001400
000800
ENDCHAR
STARTCHAR sterling
ENCODING 163
SWIDTH 799 0
DWIDTH 14 0
BBX 11 16 2 -2
BITMAP
00BE00
038280
0B07C0
0E0FC0
0F0B40
0F0000
0F4000
0BD400
57D000
02E000
01F000
00F400
00B410
1FF004
21F914
2F87E0
ENDCHAR
STARTCHAR currency
ENCODING 164
SWIDTH 732 0
DWIDTH 13 0
BBX 11 13 1 0
BITMAP
000100
400600
66FE00
290680
200090
500050
900090
600080
380740
1FF980
180064
340004
100000
ENDCHAR
STARTCHAR yen
ENCODING 165
SWIDTH 799 0
DWIDTH 14 0
BBX 14 19 0 -2
BITMAP
00180010
7FF40590
07F43F00
01F80900
00BC0800
003E1000
002F2000
000FD000
000BD000
0007C000
01FFFFD0
0003C000
0007FE00
00ABC000
0003C000
0007C000
0007D000
001FFC00
00E50000
ENDCHAR
STARTCHAR brokenbar
ENCODING 166
SWIDTH 341 0
DWIDTH 6 0
BBX 2 21 2 -5
BITMAP
50
50
50
50
50
50
50
10
00
00
50
50
50
10
10
50
50
50
50
50
50
ENDCHAR
STARTCHAR section
ENCODING 167
SWIDTH 546 0
DWIDTH 10 0
BBX 8 21 1 -6
BITMAP
06F4
1D1D
381F
781E
7C00
3F00
2FD0
67F4
D0BD
E01E
F407
7E06
2F89
07F4
00B8
001D
0009
0005
0E05
1F48
0BE0
ENDCHAR
STARTCHAR dieresis
ENCODING 168
SWIDTH 393 0
DWIDTH 7 0
BBX 4 2 2 12
BITMAP
EA
DA
ENDCHAR
STARTCHAR copyright
ENCODING 169
SWIDTH 1023 0
DWIDTH 18 0
BBX 17 16 1 -3
BITMAP
006BF90000
029416E000
0900102800
241BD00900
6074500300
90E0100240
81E0000240
81E0040140
80F0040240
8078200240
801F900300
9000000600
3000001C00
1900007400
0790168000
006FE90000
ENDCHAR
STARTCHAR ordfeminine
ENCODING 170
SWIDTH 558 0
DWIDTH 10 0
BBX 8 9 1 6
BITMAP
2E40
A2C0
E0D0
E0D0
1FE0
B4E1
E0E1
A1B2
7E2D
ENDCHAR
STARTCHAR guillemotleft
ENCODING 171
SWIDTH 608 0
DWIDTH 11 0
BBX 9 15 1 -4
BITMAP
000040
001080
002140
009200
028600
0B4A00
7D2D00
FC2E00
7E0F40
1F4780
07C280
01D0C0
007080
002440
000800
ENDCHAR
STARTCHAR logicalnot
ENCODING 172
SWIDTH 616 0
DWIDTH 11 0
BBX 10 4 1 4
BITMAP
FFEAC0
000090
000080
000080
ENDCHAR
STARTCHAR uni00AD
ENCODING 173
SWIDTH 436 0
DWIDTH 8 0
BBX 6 2 1 3
BITMAP
4000
BFE0
ENDCHAR
STARTCHAR registered
ENCODING 174
SWIDTH 1048 0
DWIDTH 19 0
BBX 17 17 1 -4
BITMAP
001BF90000
02E405A000
0A00001800
2800000600
61FFF40140
903C3D0080
80281D0040
80282D0040
8028780040
C02FD04040
C02DE01080
907DB45040
62EF9F8200
2800400600
0A00001800
02E405A000
006BFA0000
ENDCHAR
STARTCHAR macron
ENCODING 175
SWIDTH 382 0
DWIDTH 7 0
BBX 5 1 1 14
BITMAP
BF80
ENDCHAR
STARTCHAR degree
ENCODING 176
SWIDTH 346 0
DWIDTH 6 0
BBX 5 4 1 13
BITMAP
7E00
8240
8240
7E00
ENDCHAR
STARTCHAR plusminus
ENCODING 177
SWIDTH 580 0
DWIDTH 10 0
BBX 9 7 1 3
BITMAP
004000
008000
008000
BFEA40
004000
004000
FEA800
ENDCHAR
STARTCHAR twosuperior
ENCODING 178
SWIDTH 365 0
DWIDTH 7 0
BBX 6 10 0 6
BITMAP
0BD0
15E0
00B0
00E0
01C0
0600
7400
1E50
0780
0100
ENDCHAR
STARTCHAR threesuperior
ENCODING 179
SWIDTH 371 0
DWIDTH 7 0
BBX 7 9 0 7
BITMAP
3F40
1200
0500
06D0
00B0
4074
80B4
61E0
1F80
ENDCHAR
STARTCHAR acute
ENCODING 180
SWIDTH 234 0
DWIDTH 4 0
BBX 3 4 1 14
BITMAP
24
70
90
80
ENDCHAR
STARTCHAR mu
ENCODING 181
SWIDTH 634 0
DWIDTH 11 0
BBX 12 15 0 -6
BITMAP
740000
740B40
740740
740740
780740
3C0788
3E0A85
39F5D5
380078
380000
3C0000
3C0000
3C0000
3D0000
2D0000
ENDCHAR
STARTCHAR paragraph
ENCODING 182
SWIDTH 707 0
DWIDTH 13 0
BBX 13 23 0 -7
BITMAP
00000100
00005900
06BFF400
2FF0B000
BFE0A000
FFE0A000
FFE0A000
BFE0A000
7FE0A000
1BE0A000
01E0A000
00E0A000
00E0A000
00E0A000
00A0F000
00A0F000
00B0F400
00B0F800
00B0BF80
00B00000
00F00000
06E00000
29000000
ENDCHAR
STARTCHAR periodcentered
ENCODING 183
SWIDTH 238 0
DWIDTH 4 0
BBX 3 3 1 5
BITMAP
B0
F4
B0
ENDCHAR
STARTCHAR cedilla
ENCODING 184
SWIDTH 332 0
DWIDTH 6 0
BBX 4 6 1 -4
BITMAP
10
20
2D
0B
8B
7D
ENDCHAR
STARTCHAR onesuperior
ENCODING 185
SWIDTH 336 0
DWIDTH 6 0
BBX 6 8 0 8
BITMAP
0040
0740
1740
0340
0340
0740
6F80
16A0
ENDCHAR
STARTCHAR ordmasculine
ENCODING 186
SWIDTH 503 0
DWIDTH 9 0
BBX 9 8 0 6
BITMAP
07F400
246E00
600B40
600340
600240
340340
2E0600
06F800
ENDCHAR
STARTCHAR guillemotright
ENCODING 187
SWIDTH 778 0
DWIDTH 14 0
BBX 12 17 1 -5
BITMAP
004000
001000
402400
800D00
740740
2E01E0
0BE47D
01FD7E
00F1F4
0283D0
0A0B40
1C0D00
242800
203400
403000
002000
001000
ENDCHAR
STARTCHAR onequarter
ENCODING 188
SWIDTH 876 0
DWIDTH 16 0
BBX 16 17 0 0
BITMAP
00000050
00400080
07400240
17400600
03400800
03402400
07409200
6F818700
16A20B00
00091B40
00181344
002043A4
0080EFF4
024042C0
060003E0
08000FFD
14000400
ENDCHAR
STARTCHAR onehalf
ENCODING 189
SWIDTH 762 0
DWIDTH 14 0
BBX 14 18 0 -1
BITMAP
00000050
00400080
07400240
17400600
03400800
03402400
07409000
6F818000
16A22F40
00095780
001802C0
00200380
00800700
02401800
0601D000
08007940
14001E00
00000400
ENDCHAR
STARTCHAR threequarters
ENCODING 190
SWIDTH 922 0
DWIDTH 17 0
BBX 17 17 0 0
BITMAP
0000000400
3F40002000
1200009000
0500018000
06D0020000
00B0090000
4074244000
80B4618000
61E083C000
1F8246C000
000605C400
000810D800
00207BFD00
009010E000
018000F400
020007FF40
0500010000
ENDCHAR
STARTCHAR questiondown
ENCODING 191
SWIDTH 571 0
DWIDTH 10 0
BBX 10 16 0 -2
BITMAP
007800
00FC00
00B800
000000
005000
002000
002000
009000
078000
1F0B80
3E1FE0
7D0BF0
BD00E0
7E00A0
2F8180
06FE00
ENDCHAR
STARTCHAR Agrave
ENCODING 192
SWIDTH 784 0
DWIDTH 14 0
BBX 15 22 0 -2
BITMAP
03400000
02C00000
00D00000
00200000
00000000
001A0000
03FF0000
001F4000
00278000
0023C000
0052D000
0081E000
0090F400
01AEF800
0241FC00
02007D00
06003E00
09002F00
FE001F40
06400FD0
00001FF4
0000A400
ENDCHAR
STARTCHAR Aacute
ENCODING 193
SWIDTH 784 0
DWIDTH 14 0
BBX 15 22 0 -2
BITMAP
00020000
00060000
000D0000
00140000
00000000
001A0000
03FF0000
001F4000
00278000
0023C000
0052D000
0081E000
0090F400
01AEF800
0241FC00
02007D00
06003E00
09002F00
FE001F40
06400FD0
00001FF4
0000A400
ENDCHAR
STARTCHAR Acircumflex
ENCODING 194
SWIDTH 784 0
DWIDTH 14 0
BBX 15 21 0 -2
BITMAP
00090000
001B4000
0061D000
01407400
001A0000
03FF0000
001F4000
00278000
0023C000
0052D000
0081E000
0090F400
01AEF800
0241FC00
02007D00
06003E00
09002F00
FE001F40
06400FD0
00001FF4
0000A400
ENDCHAR
STARTCHAR Atilde
ENCODING 195
SWIDTH 784 0
DWIDTH 14 0
BBX 15 21 0 -2
BITMAP
00B80000
012FD000
00078000
00000000
001A0000
03FF0000
001F4000
00278000
0023C000
0052D000
0081E000
0090F400
01AEF800
0241FC00
02007D00
06003E00
09002F00
FE001F40
06400FD0
00001FF4
0000A400
ENDCHAR
STARTCHAR Adieresis
ENCODING 196
SWIDTH 784 0
DWIDTH 14 0
BBX 15 21 0 -2
BITMAP
00B40000
00F5D000
00B1C000
00000000
001A0000
03FF0000
001F4000
00278000
0023C000
0052D000
0081E000
0090F400
01AEF800
0241FC00
02007D00
06003E00
09002F00
FE001F40
06400FD0
00001FF4
0000A400
ENDCHAR
STARTCHAR Aring
ENCODING 197
SWIDTH 784 0
DWIDTH 14 0
BBX 15 22 0 -2
BITMAP
001E0000
00218000
00508000
00218000
002E0000
001A0000
03FF0000
001F4000
00278000
0023C000
0052D000
0081E000
0090F400
01AEF800
0241FC00
02007D00
06003E00
09002F00
FE001F40
06400FD0
00001FF4
0000A400
ENDCHAR
STARTCHAR AE
ENCODING 198
SWIDTH 1172 0
DWIDTH 21 0
BBX 21 18 0 -3
BITMAP
00000001A000
000005AFE000
0003FFD02000
00002B801000
000013801000
000013C04000
000043C08000
000043D18000
000042FFC000
000203E08040
0003FFE04080
000902F00180
000801F40380
002401F41FC0
006001FE9400
00D002E40000
07C006400000
FEF414000000
ENDCHAR
STARTCHAR Ccedilla
ENCODING 199
SWIDTH 742 0
DWIDTH 13 0
BBX 13 22 0 -7
BITMAP
00000100
00000200
00000200
01BFEF00
0BD01F00
2F000340
3D000140
BC000000
B8000000
F8000000
F8000040
BC000040
BD000080
3E000080
1F800240
07E41900
00AFE400
00010000
00038000
0001D000
0014E000
000B8000
ENDCHAR
STARTCHAR Egrave
ENCODING 200
SWIDTH 557 0
DWIDTH 10 0
BBX 10 22 0 -2
BITMAP
180000
0E0000
074000
018000
000000
555AC0
3F4080
1F0040
1F0000
0F0000
0F4000
0B4400
0BF800
0B5800
074400
074000
078000
038010
038020
07C070
BFFBE0
001550
ENDCHAR
STARTCHAR Eacute
ENCODING 201
SWIDTH 557 0
DWIDTH 10 0
BBX 10 22 0 -2
BITMAP
000800
001800
003400
005000
000000
555AC0
3F4080
1F0040
1F0000
0F0000
0F4000
0B4400
0BF800
0B5800
074400
074000
078000
038010
038020
07C070
BFFBE0
001550
ENDCHAR
STARTCHAR Ecircumflex
ENCODING 202
SWIDTH 557 0
DWIDTH 10 0
BBX 10 22 0 -2
BITMAP
006000
01B400
021E00
040640
000000
555AC0
3F4080
1F0040
1F0000
0F0000
0F4000
0B4400
0BF800
0B5800
074400
074000
078000
038010
038020
07C070
BFFBE0
001550
ENDCHAR
STARTCHAR Edieresis
ENCODING 203
SWIDTH 557 0
DWIDTH 10 0
BBX 10 21 0 -2
BITMAP
074000
0B9D00
075D00
000000
555AC0
3F4080
1F0040
1F0000
0F0000
0F4000
0B4400
0BF800
0B5800
074400
074000
078000
038010
038020
07C070
BFFBE0
001550
ENDCHAR
STARTCHAR Igrave
ENCODING 204
SWIDTH 438 0
DWIDTH 8 0
BBX 10 24 -1 -3
BITMAP
060000
038000
01D000
006000
000000
000000
6AABE0
07F900
02F400
02F000
01E000
01E000
01E000
01D000
01D000
01D000
01C000
01C000
01C000
01C000
02C000
02D000
0BFD00
690000
ENDCHAR
STARTCHAR Iacute
ENCODING 205
SWIDTH 438 0
DWIDTH 8 0
BBX 10 23 -1 -3
BITMAP
000600
000900
000C00
001400
000000
6AABE0
07F900
02F400
02F000
01E000
01E000
01E000
01D000
01D000
01D000
01C000
01C000
01C000
01C000
02C000
02D000
0BFD00
690000
ENDCHAR
STARTCHAR Icircumflex
ENCODING 206
SWIDTH 438 0
DWIDTH 8 0
BBX 10 23 -1 -3
BITMAP
002000
00A800
024B40
050280
000000
6AABE0
07F900
02F400
02F000
01E000
01E000
01E000
01D000
01D000
01D000
01C000
01C000
01C000
01C000
02C000
02D000
0BFD00
690000
ENDCHAR
STARTCHAR Idieresis
ENCODING 207
SWIDTH 438 0
DWIDTH 8 0
BBX 10 22 -1 -3
BITMAP
078000
07CE00
078E00
000000
6AABE0
07F900
02F400
02F000
01E000
01E000
01E000
01D000
01D000
01D000
01C000
01C000
01C000
01C000
02C000
02D000
0BFD00
690000
ENDCHAR
STARTCHAR Eth
ENCODING 208
SWIDTH 730 0
DWIDTH 13 0
BBX 14 15 0 -4
BITMAP
2ABFE000
1BC1FD00
03803F40
03801FC0
03800FD0
03800FD0
6FE40FD0
57800FD0
07C00F80
07C01F40
07C03D00
07D1F400
0BFA4000
29000000
50000000
ENDCHAR
STARTCHAR Ntilde
ENCODING 209
SWIDTH 799 0
DWIDTH 14 0
BBX 15 21 0 -4
BITMAP
000B9000
0005FE00
00007D00
00000010
FFC03FE4
0BE00740
0AF80200
05BE0200
052F8200
050FD200
0507FA00
0501FF00
0500BE00
05002E00
05000E00
05000600
05000000
09000000
1E000000
BF900000
00500000
ENDCHAR
STARTCHAR Ograve
ENCODING 210
SWIDTH 747 0
DWIDTH 13 0
BBX 14 19 0 0
BITMAP
02400000
01D00000
00A00000
00240000
00000000
00000000
01BF9000
0B41BC00
2D002F00
78000F80
B4000BC0
B40007D0
F40007D0
B40007D0
B80007C0
7C000B80
2E000F00
0B907D00
01BF9000
ENDCHAR
STARTCHAR Oacute
ENCODING 211
SWIDTH 747 0
DWIDTH 13 0
BBX 14 19 0 0
BITMAP
00020000
00060000
000D0000
00140000
00000000
00000000
01BF9000
0B41BC00
2D002F00
78000F80
B4000BC0
B40007D0
F40007D0
B40007D0
B80007C0
7C000B80
2E000F00
0B907D00
01BF9000
ENDCHAR
STARTCHAR Ocircumflex
ENCODING 212
SWIDTH 747 0
DWIDTH 13 0
BBX 14 19 0 0
BITMAP
00180000
002E0000
00838000
0100A000
00000000
00000000
01BF9000
0B41BC00
2D002F00
78000F80
B4000BC0
B40007D0
F40007D0
B40007D0
B80007C0
7C000B80
2E000F00
0B907D00
01BF9000
ENDCHAR
STARTCHAR Otilde
ENCODING 213
SWIDTH 747 0
DWIDTH 13 0
BBX 14 18 0 0
BITMAP
00B90000
005FE000
0007D000
00000000
00000000
01BF9000
0B41BC00
2D002F00
78000F80
B4000BC0
B40007D0
F40007D0
B40007D0
B80007C0
7C000B80
2E000F00
0B907D00
01BF9000
ENDCHAR
STARTCHAR Odieresis
ENCODING 214
SWIDTH 747 0
DWIDTH 13 0
BBX 14 19 0 0
BITMAP
00B00000
00F6C000
00B2C000
00000000
00000000
00000000
01BF9000
0B41BC00
2D002F00
78000F80
B4000BC0
B40007D0
F40007D0
B40007D0
B80007C0
7C000B80
2E000F00
0B907D00
01BF9000
ENDCHAR
STARTCHAR multiply
ENCODING 215
SWIDTH 541 0
DWIDTH 10 0
BBX 8 11 1 0
BITMAP
0001
0009
0018
2420
0980
0380
0560
1804
2000
9000
4000
ENDCHAR
STARTCHAR Oslash
ENCODING 216
SWIDTH 747 0
DWIDTH 13 0
BBX 14 17 0 -2
BITMAP
00000080
00000240
01BF9600
0B41BD00
2D002F00
78006F80
B4018BC0
B40207D0
F40907D0
B42407D0
B86007C0
7D800B80
2F000F00
0B907D00
09BF9000
20000000
10000000
ENDCHAR
STARTCHAR Ugrave
ENCODING 217
SWIDTH 690 0
DWIDTH 12 0
BBX 14 19 0 1
BITMAP
00340000
002C0000
000A0000
00020000
00000000
00050000
16B80000
FFE00000
1FC3EB90
0FC06D00
0B800C00
0B800800
0B800800
0B800800
07C00800
07C00800
03E01400
01F46000
006F8000
ENDCHAR
STARTCHAR Uacute
ENCODING 218
SWIDTH 690 0
DWIDTH 12 0
BBX 14 17 0 1
BITMAP
00000500
00000D00
00001800
00052000
16B80000
FFE00000
1FC3EB90
0FC06D00
0B800C00
0B800800
0B800800
0B800800
07C00800
07C00800
03E01400
01F46000
006F8000
ENDCHAR
STARTCHAR Ucircumflex
ENCODING 219
SWIDTH 690 0
DWIDTH 12 0
BBX 14 18 0 1
BITMAP
00020000
000A8000
0014B400
00501C00
00050000
16B80000
FFE00000
1FC3EB90
0FC06D00
0B800C00
0B800800
0B800800
0B800800
07C00800
07C00800
03E01400
01F46000
006F8000
ENDCHAR
STARTCHAR Udieresis
ENCODING 220
SWIDTH 690 0
DWIDTH 12 0
BBX 14 18 0 1
BITMAP
002C0000
003DB000
002CB000
00000000
00050000
16B80000
FFE00000
1FC3EB90
0FC06D00
0B800C00
0B800800
0B800800
0B800800
07C00800
07C00800
03E01400
01F46000
006F8000
ENDCHAR
STARTCHAR Yacute
ENCODING 221
SWIDTH 796 0
DWIDTH 14 0
BBX 16 22 0 -2
BITMAP
00000500
00000C00
00002800
00002000
01640000
BFD00240
1BC001FF
02E00080
00F80200
007E0800
001FB400
000BE000
0003C000
0002C000
0002C000
0002C000
0003C000
0003D000
0003D000
000BD000
00BFF400
00005800
ENDCHAR
STARTCHAR Thorn
ENCODING 222
SWIDTH 479 0
DWIDTH 9 0
BBX 9 19 0 -2
BITMAP
7FD000
1F4000
0A0000
0A0000
0BF900
0A1F40
090BC0
0D07C0
0E07C0
0E1F40
0FFD00
0E0000
0E0000
0E0000
0E0000
1E0000
2F0000
7F8000
004000
ENDCHAR
STARTCHAR germandbls
ENCODING 223
SWIDTH 591 0
DWIDTH 11 0
BBX 11 19 0 -2
BITMAP
1F8000
61E000
907000
C07400
C07000
D06000
909000
A14000
B7F900
706F80
7407E0
3802F0
3C00F4
2D00B4
1E0074
1E3470
1F7CA0
2E2F80
900000
ENDCHAR
STARTCHAR agrave
ENCODING 224
SWIDTH 527 0
DWIDTH 10 0
BBX 10 17 0 -1
BITMAP
600000
380000
1D0000
060000
000000
0BE000
247400
243C00
2D2D00
1E2D00
001E00
1BFE00
741F00
B41F00
BFEF50
2F8B90
0002E0
ENDCHAR
STARTCHAR aacute
ENCODING 225
SWIDTH 527 0
DWIDTH 10 0
BBX 10 17 0 -1
BITMAP
002400
007000
009000
008000
000000
0BE000
247400
243C00
2D2D00
1E2D00
001E00
1BFE00
741F00
B41F00
BFEF50
2F8B90
0002E0
ENDCHAR
STARTCHAR acircumflex
ENCODING 226
SWIDTH 527 0
DWIDTH 10 0
BBX 10 16 0 -1
BITMAP
018000
02A000
083800
100A00
0BE000
247400
243C00
2D2D00
1E2D00
001E00
1BFE00
741F00
B41F00
BFEF50
2F8B90
0002E0
ENDCHAR
STARTCHAR atilde
ENCODING 227
SWIDTH 527 0
DWIDTH 10 0
BBX 10 15 0 -1
BITMAP
0B9000
05FE00
007D00
0BE000
247400
243C00
2D2D00
1E2D00
001E00
1BFE00
741F00
B41F00
BFEF50
2F8B90
0002E0
ENDCHAR
STARTCHAR adieresis
ENCODING 228
SWIDTH 527 0
DWIDTH 10 0
BBX 10 15 0 -1
BITMAP
0EA000
0DA000
000000
0BE000
247400
243C00
2D2D00
1E2D00
001E00
1BFE00
741F00
B41F00
BFEF50
2F8B90
0002E0
ENDCHAR
STARTCHAR aring
ENCODING 229
SWIDTH 527 0
DWIDTH 10 0
BBX 10 18 0 -1
BITMAP
02E000
052400
081400
092400
02E000
000000
0BE000
247400
243C00
2D2D00
1E2D00
001E00
1BFE00
741F00
B41F00
BFEF50
2F8B90
0002E0
ENDCHAR
STARTCHAR ae
ENCODING 230
SWIDTH 700 0
DWIDTH 13 0
BBX 13 12 0 -1
BITMAP
0002F800
1E091E00
31940E00
70F00E00
34F07C00
07FFE000
28B00000
70B40100
A0BC0140
B1BE4740
7F9FFE00
2E07F800
ENDCHAR
STARTCHAR ccedilla
ENCODING 231
SWIDTH 437 0
DWIDTH 8 0
BBX 8 15 0 -4
BITMAP
06F4
18BC
3078
7000
A000
B004
B002
7405
2D08
0BE4
0040
01E0
0074
0474
02E0
ENDCHAR
STARTCHAR egrave
ENCODING 232
SWIDTH 434 0
DWIDTH 8 0
BBX 8 15 0 1
BITMAP
2400
1D00
0A00
0240
0000
06F4
1D1D
380E
741D
B47C
BFE0
B805
7801
2E09
0BF4
ENDCHAR
STARTCHAR eacute
ENCODING 233
SWIDTH 434 0
DWIDTH 8 0
BBX 8 15 0 1
BITMAP
0024
0070
0090
0080
0000
06F4
1D1D
380E
741D
B47C
BFE0
B805
7801
2E09
0BF4
ENDCHAR
STARTCHAR ecircumflex
ENCODING 234
SWIDTH 434 0
DWIDTH 8 0
BBX 8 15 0 1
BITMAP
0180
02E0
0838
100A
0000
06F4
1D1D
380E
741D
B47C
BFE0
B805
7801
2E09
0BF4
ENDCHAR
STARTCHAR edieresis
ENCODING 235
SWIDTH 434 0
DWIDTH 8 0
BBX 8 13 0 1
BITMAP
0774
0B74
0000
06F4
1D1D
380E
741D
B47C
BFE0
B805
7801
2E09
0BF4
ENDCHAR
STARTCHAR igrave
ENCODING 236
SWIDTH 301 0
DWIDTH 5 0
BBX 6 15 -1 2
BITMAP
A000
7400
1C00
0500
0000
0180
2FC0
07C0
0780
0780
0780
0740
0740
0780
2FF0
ENDCHAR
STARTCHAR iacute
ENCODING 237
SWIDTH 301 0
DWIDTH 5 0
BBX 5 15 0 2
BITMAP
0140
0300
0A00
0800
0000
0600
BF00
1F00
1E00
1E00
1E00
1D00
1D00
1E00
BFC0
ENDCHAR
STARTCHAR icircumflex
ENCODING 238
SWIDTH 301 0
DWIDTH 5 0
BBX 7 14 -1 2
BITMAP
0240
0AC0
14B4
501C
0180
2FC0
07C0
0780
0780
0780
0740
0740
0780
2FF0
ENDCHAR
STARTCHAR idieresis
ENCODING 239
SWIDTH 301 0
DWIDTH 5 0
BBX 5 13 0 2
BITMAP
3A80
3A80
0000
0600
BF00
1F00
1E00
1E00
1E00
1D00
1D00
1E00
BFC0
ENDCHAR
STARTCHAR eth
ENCODING 240
SWIDTH 476 0
DWIDTH 9 0
BBX 11 16 -2 -2
BITMAP
000100
000100
06F800
291B00
501280
0041D0
0000E0
0000B0
007EF0
01D1F4
0380B4
038074
03C030
02D070
01F490
006F80
ENDCHAR
STARTCHAR ntilde
ENCODING 241
SWIDTH 584 0
DWIDTH 11 0
BBX 11 15 0 0
BITMAP
00B900
005FE0
0007D0
090000
2D1F80
5E52D0
0E41E0
0B40E0
0B40E0
0700E0
0701D0
0342D0
038FD0
1FD1A0
000004
ENDCHAR
STARTCHAR ograve
ENCODING 242
SWIDTH 400 0
DWIDTH 7 0
BBX 12 15 0 3
BITMAP
00001E
00001F
700007
380002
0D0005
060008
000020
000190
1AF900
387000
B47800
B03C00
B07C00
74B400
1F9000
ENDCHAR
STARTCHAR oacute
ENCODING 243
SWIDTH 400 0
DWIDTH 7 0
BBX 12 15 0 3
BITMAP
00001E
00001F
002407
007002
009005
008008
000020
000190
1AF900
387000
B47800
B03C00
B07C00
74B400
1F9000
ENDCHAR
STARTCHAR ocircumflex
ENCODING 244
SWIDTH 400 0
DWIDTH 7 0
BBX 12 15 0 3
BITMAP
00001E
00001F
000007
014002
06D005
087808
101920
000190
1AF900
387000
B47800
B03C00
B07C00
74B400
1F9000
ENDCHAR
STARTCHAR otilde
ENCODING 245
SWIDTH 400 0
DWIDTH 7 0
BBX 12 15 0 3
BITMAP
00001E
00001F
000007
000002
000005
0B9008
15FE20
007E90
1AF900
387000
B47800
B03C00
B07C00
74B400
1F9000
ENDCHAR
STARTCHAR odieresis
ENCODING 246
SWIDTH 400 0
DWIDTH 7 0
BBX 12 15 0 3
BITMAP
00001E
00001F
000007
000002
000005
0A7008
0A7020
000190
1AF900
387000
B47800
B03C00
B07C00
74B400
1F9000
ENDCHAR
STARTCHAR divide
ENCODING 247
SWIDTH 592 0
DWIDTH 11 0
BBX 9 7 1 2
BITMAP
028000
038000
000000
FFFF80
000000
028000
028000
ENDCHAR
STARTCHAR oslash
ENCODING 248
SWIDTH 396 0
DWIDTH 7 0
BBX 7 12 0 0
BITMAP
0040
0080
1BD0
75B4
B238
A238
B578
7CB4
1F90
1800
1400
1000
ENDCHAR
STARTCHAR ugrave
ENCODING 249
SWIDTH 744 0
DWIDTH 13 0
BBX 14 15 0 0
BITMAP
00D00000
00B00000
00380000
00080000
00000000
00006400
0207F400
1F007800
AF403800
0B403800
07807800
07C06C00
03E19FD0
02FF4500
00BD0000
ENDCHAR
STARTCHAR uacute
ENCODING 250
SWIDTH 744 0
DWIDTH 13 0
BBX 14 15 0 0
BITMAP
00020000
000A0000
000C0000
00140000
00000000
00006400
0207F400
1F007800
AF403800
0B403800
07807800
07C06C00
03E19FD0
02FF4500
00BD0000
ENDCHAR
STARTCHAR ucircumflex
ENCODING 251
SWIDTH 744 0
DWIDTH 13 0
BBX 14 15 0 0
BITMAP
00240000
006C0000
014B4000
0501C000
00000000
00006400
0207F400
1F007800
AF403800
0B403800
07807800
07C06C00
03E19FD0
02FF4500
00BD0000
ENDCHAR
STARTCHAR udieresis
ENCODING 252
SWIDTH 744 0
DWIDTH 13 0
BBX 14 13 0 0
BITMAP
00774000
00774000
00000000
00006400
0207F400
1F007800
AF403800
0B403800
07807800
07C06C00
03E19FD0
02FF4500
00BD0000
ENDCHAR
STARTCHAR yacute
ENCODING 253
SWIDTH 659 0
DWIDTH 12 0
BBX 12 21 0 -8
BITMAP
000080
000280
000300
000500
019001
1B47FD
BE00F8
1E0078
1E0078
0F00B8
0B40B4
03D174
01B970
000070
0000A0
000090
06D0C0
06E180
05D340
091D00
06E400
ENDCHAR
STARTCHAR thorn
ENCODING 254
SWIDTH 514 0
DWIDTH 9 0
BBX 10 27 -1 -12
BITMAP
024000
2E0000
BD0000
1D0000
0D0000
0D0000
0E0000
0EBE00
0B4B80
0A03D0
0A02E0
0B02F0
0B02F0
0B02E0
0B87D0
0B6F40
0B4000
0B4000
0B4000
0B4000
0B8000
0B8000
0B8000
0B8000
0F8000
7FD000
006C00
ENDCHAR
STARTCHAR ydieresis
ENCODING 255
SWIDTH 659 0
DWIDTH 12 0
BBX 12 21 0 -8
BITMAP
0029C0
0029C0
000000
000000
019001
1B47FD
BE00F8
1E0078
1E0078
0F00B8
0B40B4
03D174
01B970
000070
0000A0
000090
06D0C0
06E180
05D340
091D00
06E400
ENDCHAR
STARTCHAR dotlessi
ENCODING 305
SWIDTH 301 0
DWIDTH 5 0
BBX 5 10 0 2
BITMAP
0600
BF00
1F00
1E00
1E00
1E00
1D00
1D00
1E00
BFC0
ENDCHAR
STARTCHAR OE
ENCODING 338
SWIDTH 1132 0
DWIDTH 20 0
BBX 21 18 0 -3
BITMAP
00000001B400
01BF97FFB400
0B80BAE01400
1E001FD00400
3C000BE00000
B80003E00000
B80002E01000
F80002E19000
F80001FED000
BC0001F05000
7D0001F01000
3F0002F00000
1F8007F00040
07E419F00140
00BF91F40240
000001F41B40
000002FFFF40
00001A500000
ENDCHAR
STARTCHAR oe
ENCODING 339
SWIDTH 798 0
DWIDTH 14 0
BBX 14 8 0 2
BITMAP
0BE02F40
347CE1C0
701FC1C0
B00FFE60
B40BC010
780BD020
2E1DF460
0BE4BF80
ENDCHAR
STARTCHAR circumflex
ENCODING 710
SWIDTH 483 0
DWIDTH 9 0
BBX 7 4 1 12
BITMAP
0600
0A80
24A0
4028
ENDCHAR
STARTCHAR caron
ENCODING 711
SWIDTH 428 0
DWIDTH 8 0
BBX 6 5 1 12
BITMAP
0010
9080
3600
1D00
0800
ENDCHAR
STARTCHAR ring
ENCODING 730
SWIDTH 330 0
DWIDTH 6 0
BBX 4 5 1 15
BITMAP
7D
92
82
C2
7D
ENDCHAR
STARTCHAR tilde
ENCODING 732
SWIDTH 433 0
DWIDTH 8 0
BBX 6 3 1 13
BITMAP
7900
5FE0
02D0
ENDCHAR
STARTCHAR mu.dup1
ENCODING 956
SWIDTH 634 0
DWIDTH 11 0
BBX 12 15 0 -6
BITMAP
740000
740B40
740740
740740
780740
3C0788
3E0A85
39F5D5
380078
380000
3C0000
3C0000
3C0000
3D0000
2D0000
ENDCHAR
STARTCHAR endash
ENCODING 8211
SWIDTH 436 0
DWIDTH 8 0
BBX 6 2 1 3
BITMAP
4000
BFE0
ENDCHAR
STARTCHAR emdash
ENCODING 8212
SWIDTH 651 0
DWIDTH 12 0
BBX 10 2 1 3
BITMAP
15ABE0
555000
ENDCHAR
STARTCHAR quoteleft
ENCODING 8216
SWIDTH 287 0
DWIDTH 5 0
BBX 3 6 1 9
BITMAP
14
70
B0
F8
FC
B8
ENDCHAR
STARTCHAR quoteright
ENCODING 8217
SWIDTH 291 0
DWIDTH 5 0
BBX 4 6 1 8
BITMAP
B8
FD
7D
1D
08
20
ENDCHAR
STARTCHAR quotesinglbase
ENCODING 8218
SWIDTH 272 0
DWIDTH 5 0
BBX 3 6 1 -3
BITMAP
B8
FC
7C
18
20
10
ENDCHAR
STARTCHAR quotedblleft
ENCODING 8220
SWIDTH 445 0
DWIDTH 8 0
BBX 6 7 1 8
BITMAP
0500
2450
70C0
F1D0
F5F0
F8E0
B400
ENDCHAR
STARTCHAR quotedblright
ENCODING 8221
SWIDTH 444 0
DWIDTH 8 0
BBX 6 7 1 8
BITMAP
B400
F9E0
7AF0
29F0
20A0
5080
0200
ENDCHAR
STARTCHAR quotedblbase
ENCODING 8222
SWIDTH 482 0
DWIDTH 9 0
BBX 7 7 1 -5
BITMAP
B800
FCB4
BDF8
1CB8
1834
1060
0080
ENDCHAR
STARTCHAR bullet
ENCODING 8226
SWIDTH 351 0
DWIDTH 6 0
BBX 5 4 1 5
BITMAP
7E00
FF40
FF40
7E00
ENDCHAR
STARTCHAR guilsinglleft
ENCODING 8249
SWIDTH 465 0
DWIDTH 8 0
BBX 7 10 1 -1
BITMAP
0080
0140
0700
1D00
BC00
7D00
1F40
02C0
00A0
0024
ENDCHAR
STARTCHAR guilsinglright
ENCODING 8250
SWIDTH 449 0
DWIDTH 8 0
BBX 6 12 1 -2
BITMAP
4000
6000
2400
0E00
0B90
07E0
0F40
1D00
3400
6000
8000
4000
ENDCHAR
STARTCHAR fraction
ENCODING 8260
SWIDTH 406 0
DWIDTH 7 0
BBX 13 17 -3 0
BITMAP
00000040
00000200
00000900
00001800
00002000
00009000
00018000
00060000
00080000
00240000
00600000
00800000
02400000
05000000
18000000
20000000
50000000
ENDCHAR
STARTCHAR foursuperior
ENCODING 8308
SWIDTH 473 0
DWIDTH 9 0
BBX 8 11 0 6
BITMAP
0040
0180
0380
06C0
05C4
11D8
6BFC
10E0
00F4
07FF
0100
ENDCHAR
STARTCHAR Euro
ENCODING 8364
SWIDTH 799 0
DWIDTH 14 0
BBX 15 15 0 -1
BITMAP
00000004
0006FE08
003E42F4
00F800B0
02F00060
07D00010
0BD54000
1BD44000
5FD90000
6FD00000
9BC00040
07D00040
02E00200
00B90500
001BE400
ENDCHAR
STARTCHAR minus
ENCODING 8722
SWIDTH 436 0
DWIDTH 8 0
BBX 6 2 1 3
BITMAP
4000
BFE0
ENDCHAR
STARTCHAR f_f
ENCODING 64256
SWIDTH 467 0
DWIDTH 8 0
BBX 11 27 0 -6
BITMAP
00B800
013D00
052C00
0807E0
0818B4
0830B8
0862F4
1861E0
18A000
18A000
18A000
1EFE00
3DA000
1C7000
1C7000
1D7400
1D3800
0D2C00
0E2D00
0E1E00
0F1FD0
0B2900
0B5000
0B8000
0BC000
0FE000
7FFC00
ENDCHAR
STARTCHAR .notdef
ENCODING -1
SWIDTH 270 0
DWIDTH 5 0
BBX 5 11 0 0
BITMAP
7F40
0000
0000
0000
0000
0000
0000
0000
0000
0000
7F40
ENDCHAR
STARTCHAR .null
ENCODING -1
SWIDTH 0 0
DWIDTH 0 0
BBX 1 1 0 0
BITMAP
00
ENDCHAR
STARTCHAR nonmarkingreturn
ENCODING -1
SWIDTH 270 0
DWIDTH 5 0
BBX 1 1 0 0
BITMAP
00
ENDCHAR
STARTCHAR dieresis.case
ENCODING -1
SWIDTH 393 0
DWIDTH 7 0
BBX 5 3 1 14
BITMAP
B000
F6C0
B2C0
ENDCHAR
STARTCHAR o.cmp
ENCODING -1
SWIDTH 400 0
DWIDTH 7 0
BBX 12 15 0 3
BITMAP
00001E
00001F
000007
000002
000005
000008
000020
000190
1AF900
387000
B47800
B03C00
B07C00
74B400
1F9000
ENDCHAR
STARTCHAR n_n
ENCODING -1
SWIDTH 1024 0
DWIDTH 18 0
BBX 18 12 0 0
BITMAP
0500000000
2D1F800000
BE52DBC000
0E41E3DB80
0F41E2E2D0
0B40E2C1E0
0700E3C0E0
0700D3C1E0
0341D3C1E0
0382DBE2D0
1FDFD41FE0
0000640050
ENDCHAR
STARTCHAR a_a
ENCODING -1
SWIDTH 911 0
DWIDTH 16 0
BBX 17 13 0 -1
BITMAP
00002F8000
0000A1E000
0000F07000
1F80B07400
30D0007400
7060BEB400
7462D1B800
1BE7B47800
7D77587800
B477D5B800
B479BD7800
2E1BD03C40
0000001F80
ENDCHAR
STARTCHAR t_h
ENCODING -1
SWIDTH 854 0
DWIDTH 15 0
BBX 17 23 -1 -4
BITMAP
0001A00000
003FE00000
0001E00000
0000E00000
0014E00000
0030D00000
01F0D00000
6FFFF80000
01E1D00000
02D1D7E400
02D1E83D00
02C1E01E00
02C1D00E00
02D2C78F00
02D2C38F00
01E2C28E00
00BAC71E00
001BF81D00
0003E02D00
001BFC2C00
002400BC00
000003FE00
0000000640
ENDCHAR
STARTCHAR s_s
ENCODING -1
SWIDTH 654 0
DWIDTH 12 0
BBX 12 15 0 -3
BITMAP
02E804
0B16FC
0A1748
074B04
02D700
00B780
002ED0
101EF0
51DE78
A29E3D
562D2D
07E42D
01003D
0090B8
002FD0
ENDCHAR
STARTCHAR t_t
ENCODING -1
SWIDTH 569 0
DWIDTH 10 0
BBX 11 16 0 -2
BITMAP
002C00
017800
027840
1FBE00
BFF800
1E7400
1E7400
1D7400
1D7400
1D34E0
1D38B4
1E1D20
0E07D0
0B02C0
0387C0
00BE40
ENDCHAR
STARTCHAR e_e
ENCODING -1
SWIDTH 782 0
DWIDTH 14 0
BBX 14 10 0 0
BITMAP
0BD1BD00
38638740
B43B0240
F06F0240
F1CF0300
BE0F0610
780B5C20
2E47E020
06FEE450
00006F80
ENDCHAR
STARTCHAR o_o
ENCODING -1
SWIDTH 751 0
DWIDTH 14 0
BBX 19 15 0 1
BITMAP
00000000B0
00000000F4
0000000034
0000000020
0000000020
0000000050
0000000180
0BE4001900
2D1EDBE400
780B434000
B40F02C000
B00F02C000
B40B078000
382EFE0000
0BE4000000
ENDCHAR
STARTCHAR l_l
ENCODING -1
SWIDTH 573 0
DWIDTH 10 0
BBX 12 18 -1 -3
BITMAP
024180
1F6FC0
6B47C0
0B43C0
0B43C0
0B43C0
0B43C0
0B42C0
0B42D0
0B42D0
0B42D0
0B42D0
0B42E0
0B42F0
0B8BFD
BF8000
06D000
001000
ENDCHAR
STARTCHAR z_z
ENCODING -1
SWIDTH 875 0
DWIDTH 16 0
BBX 16 13 0 -1
BITMAP
00640000
007FF800
00407400
2FFDB000
10F8E000
11F1D000
03D38000
0B8B4100
1F0F021E
3D1FFF1F
7800000E
FBFE901D
0015AFE4
ENDCHAR
STARTCHAR j_j
ENCODING -1
SWIDTH 577 0
DWIDTH 10 0
BBX 12 24 -2 -11
BITMAP
0002D0
0003D0
003AD0
007860
000BF4
06FEF8
007E7C
002F2D
001F1D
000F1E
000B0E
000B4B
00074B
00074B
000707
000707
2E0707
BE0A07
E40906
C01C06
A07409
2FAE08
002F14
000B90
ENDCHAR
STARTCHAR f_b
ENCODING -1
SWIDTH 731 0
DWIDTH 13 0
BBX 14 23 -1 -3
BITMAP
001F4000
0061D000
00C0D000
0186D000
024FC000
024A5000
0346E000
079FE000
6F90E000
5780E000
0780A000
0780A000
0780A000
0780A000
0780AB90
0780B1F0
0380A0F0
0380A0F0
0380E1E0
03C2FF90
07D50000
07FC0000
19000000
ENDCHAR
STARTCHAR f_k
ENCODING -1
SWIDTH 708 0
DWIDTH 13 0
BBX 13 21 0 -3
BITMAP
00200000
01A00000
1FFF4000
01E2C000
02A7D000
05B78000
09B00000
0DB00000
2CB14000
1CB0B900
1C709000
1C724000
1C7B0000
1C7B4000
1C778100
1C76C040
1C74E180
2C786E00
7DB90000
07FFC000
04000000
ENDCHAR
STARTCHAR f_h
ENCODING -1
SWIDTH 873 0
DWIDTH 16 0
BBX 17 23 -1 -3
BITMAP
001F400000
0060D00000
0080D00000
018BD00000
024F980000
0241B40000
034BF40000
0395740000
0BE4700000
AF80700000
0780700000
0780700000
0780700000
0780B2F400
0380B87C00
0380B42D00
0380B02D00
0380E02D00
0380E02D00
03C1E07F80
07DFF45000
0BFC140000
1900000000
ENDCHAR
ENDFONT
